<!DOCTYPE svg PUBLIC "-//W3C//DTD SVG 1.1//EN" "http://www.w3.org/Graphics/SVG/1.1/DTD/svg11.dtd">

<!-- Uploaded to: SVG Repo, www.svgrepo.com, Transformed by: SVG Repo Mixer Tools -->
<svg fill="rgb(98,197,195)" version="1.1" id="Layer_1" xmlns="http://www.w3.org/2000/svg" xmlns:xlink="http://www.w3.org/1999/xlink" width="256px" height="256px" viewBox="-51.2 -51.2 358.40 358.40" enable-background="new 0 0 256 198" xml:space="preserve" stroke="#52ea1a" stroke-width="0.00256" transform="matrix(1, 0, 0, 1, 0, 0)rotate(0)">

<g id="SVGRepo_bgCarrier" stroke-width="0" transform="translate(0,0), scale(1)">

<path transform="translate(-51.2, -51.2), scale(11.2)" d="M16,26.305884290486574C18.257797736244655,26.720309959598485,20.2663700706307,28.962259279469276,22.47524859244389,28.337555406516096C24.589913889631678,27.73949644215598,25.73712469916697,25.335421026225205,26.591155867514146,23.310547052992955C27.377760043117355,21.445539800977468,26.866976485391966,19.358460236755203,27.10989797069933,17.348985844999284C27.352676913613486,15.340690580270874,28.620553786073398,13.372690783795582,28.026280253591665,11.439033509601224C27.429484664640565,9.497169925397483,25.373524284594176,8.476952131165023,23.94065589640678,7.03685236490529C22.416368858452863,5.504872578647985,21.23072150279785,3.6054118775719783,19.288672942385713,2.6573293766384065C17.161138389187155,1.6186950596926868,14.492264866881028,0.29151476046498903,12.402418194532954,1.4040368525902522C10.156649682222113,2.599563355469008,10.298801510275817,5.922654570375572,9.021571511424415,8.122982582287978C8.163921171186791,9.600486297161654,7.025604717623014,10.807523415349099,6.107613767368175,12.248312764568977C4.985842045012271,14.008936602285186,3.4267405220847573,15.536003096400638,2.9968026871548137,17.57887400595602C2.5046063880410636,19.91756909059341,1.9113065125306223,22.843198418705104,3.502558703924832,24.62636087881677C5.15212189239008,26.474866834793573,8.207292234761836,25.839346472820928,10.662723683207954,26.169330387585198C12.452546025100164,26.409863505902923,14.223761821878876,25.979850348803943,16,26.305884290486574" fill="#d9e4f1" strokewidth="0"/>

</g>

<g id="SVGRepo_tracerCarrier" stroke-linecap="round" stroke-linejoin="round" stroke="#CCCCCC" stroke-width="1.024"/>

<g id="SVGRepo_iconCarrier"> <path d="M129.522,11.571c3.751-6.76,8.291-9.629,14.924-9.525c8.877,0.14,15.96,7.449,15.821,16.326 c-0.14,8.877-7.455,15.478-16.326,15.821c-11.366,0.438-20.758-6.52-24.662-13.277l-0.001-0.001 C124.049,19.718,127.151,15.841,129.522,11.571z M221.173,94.438c-6.135,0-11.12-4.984-11.12-11.119 c0-6.135,4.985-11.119,11.12-11.119c6.039,0,11.023,4.984,11.023,11.119C232.196,89.453,227.308,94.438,221.173,94.438 M56.847,34.479c8.892,0,16.132-7.24,16.132-16.132S65.739,2.215,56.847,2.215s-16.132,7.24-16.132,16.132 C40.715,27.24,47.955,34.479,56.847,34.479z M254,141.416h-6.091c0.002-0.058,0.014-0.113,0.014-0.171c0-4.889,0-17.21,0-27.251 c0.001-8.151-6.608-14.753-14.761-14.753h-28.05l-15.141-1.055l-11.883-42.292c-5.08-17.542-19.746-16.966-19.746-16.966h-24.911 c0,0-14.762-0.575-19.746,17.062l-10.899,45.394h-5.179V58.796C97.295,47.62,87.016,38.65,76.077,38.65H34.169 c-11.126,0-20.145,9.02-20.145,20.145v42.589H2v70.267h31.351l0.001,14.359c0,5.492,4.452,9.944,9.945,9.944 c5.492,0,9.944-4.452,9.944-9.944v-68.876h5.149v68.878c0,5.492,4.452,9.944,9.944,9.944c5.492,0,9.944-4.452,9.944-9.944V62.993 l5.165,0.002v45.141c0,0.007,0.001,0.013,0.001,0.019v63.495h36.116v-36.198h5.154v52.816c0,4.247,3.442,7.689,7.689,7.689h0.004 c4.247,0,7.689-3.442,7.689-7.689v-52.816h0.338h4.469h0.342v52.816c0,4.247,3.442,7.689,7.689,7.689 c4.247,0,7.689-3.442,7.689-7.689v-52.816l20.369-0.205l-19.671-73.419h4.371l12.193,42.452c0.799,2.782,3.259,4.627,5.99,4.789 l-0.001,0.006l20.47,3.601v76.689c0,3.6,2.919,6.518,6.518,6.518c3.6,0,6.518-2.919,6.518-6.518v-40.731h4.008v40.731 c0,3.6,2.919,6.519,6.519,6.519s6.519-2.919,6.519-6.519v-17.715H254V141.416z M28.188,101.384c0-12.557,0-33.185,0-38.391h5.151 l0.004,38.391H28.188z M234.426,116.781h3.912v24.634c0,0,0,0.001,0,0.001h-3.912V116.781z"/> </g>

</svg>